<mxfile host="Electron" agent="Mozilla/5.0 (Macintosh; Intel Mac OS X 10_15_7) AppleWebKit/537.36 (KHTML, like Gecko) draw.io/26.1.1 Chrome/132.0.6834.210 Electron/34.3.3 Safari/537.36" version="26.1.1">
  <diagram id="Cs2e0cuhcmKbcRsGS2Iy" name="Page-1">
    <mxGraphModel dx="1114" dy="999" grid="1" gridSize="10" guides="1" tooltips="1" connect="1" arrows="1" fold="1" page="1" pageScale="1" pageWidth="1100" pageHeight="850" math="0" shadow="0">
      <root>
        <mxCell id="0" />
        <mxCell id="1" parent="0" />
        <mxCell id="2" value="Python版本演进时间线" style="text;html=1;strokeColor=none;fillColor=none;align=center;verticalAlign=middle;whiteSpace=wrap;rounded=0;fontSize=20;fontStyle=1" parent="1" vertex="1">
          <mxGeometry x="395" y="20" width="310" height="30" as="geometry" />
        </mxCell>
        <mxCell id="3" value="" style="endArrow=classic;html=1;strokeWidth=3;" parent="1" edge="1">
          <mxGeometry width="50" height="50" relative="1" as="geometry">
            <mxPoint x="60" y="209" as="sourcePoint" />
            <mxPoint x="1040" y="209" as="targetPoint" />
          </mxGeometry>
        </mxCell>
        <mxCell id="4" value="Python 0.9.0&lt;br&gt;(1991)" style="rounded=1;whiteSpace=wrap;html=1;fillColor=#dae8fc;strokeColor=#6c8ebf;" parent="1" vertex="1">
          <mxGeometry x="70" y="239" width="120" height="40" as="geometry" />
        </mxCell>
        <mxCell id="5" value="Python 1.0&lt;br&gt;(1994)" style="rounded=1;whiteSpace=wrap;html=1;fillColor=#dae8fc;strokeColor=#6c8ebf;" parent="1" vertex="1">
          <mxGeometry x="150" y="144" width="120" height="40" as="geometry" />
        </mxCell>
        <mxCell id="6" value="首个公开发布版本，包含类、函数、异常处理、模块系统和垃圾回收" style="text;html=1;strokeColor=none;fillColor=none;align=left;verticalAlign=middle;whiteSpace=wrap;rounded=0;" parent="1" vertex="1">
          <mxGeometry x="70" y="279" width="120" height="70" as="geometry" />
        </mxCell>
        <mxCell id="7" value="引入lambda、map、filter和reduce等函数式编程工具" style="text;html=1;strokeColor=none;fillColor=none;align=left;verticalAlign=middle;whiteSpace=wrap;rounded=0;" parent="1" vertex="1">
          <mxGeometry x="150" y="102" width="120" height="40" as="geometry" />
        </mxCell>
        <mxCell id="8" value="Python 2.0&lt;br&gt;(2000)" style="rounded=1;whiteSpace=wrap;html=1;fillColor=#d5e8d4;strokeColor=#82b366;" parent="1" vertex="1">
          <mxGeometry x="310" y="239" width="120" height="40" as="geometry" />
        </mxCell>
        <mxCell id="9" value="列表推导式、垃圾回收系统改进和Unicode支持" style="text;html=1;strokeColor=none;fillColor=none;align=left;verticalAlign=middle;whiteSpace=wrap;rounded=0;" parent="1" vertex="1">
          <mxGeometry x="310" y="279" width="120" height="60" as="geometry" />
        </mxCell>
        <mxCell id="10" value="Python 2.2&lt;br&gt;(2001)" style="rounded=1;whiteSpace=wrap;html=1;fillColor=#d5e8d4;strokeColor=#82b366;" parent="1" vertex="1">
          <mxGeometry x="350" y="144" width="120" height="40" as="geometry" />
        </mxCell>
        <mxCell id="11" value="统一了类型和类系统，内置类型可被继承" style="text;html=1;strokeColor=none;fillColor=none;align=left;verticalAlign=middle;whiteSpace=wrap;rounded=0;" parent="1" vertex="1">
          <mxGeometry x="350" y="102" width="120" height="40" as="geometry" />
        </mxCell>
        <mxCell id="12" value="Python 2.4&lt;br&gt;(2004)" style="rounded=1;whiteSpace=wrap;html=1;fillColor=#d5e8d4;strokeColor=#82b366;" parent="1" vertex="1">
          <mxGeometry x="470" y="239" width="120" height="40" as="geometry" />
        </mxCell>
        <mxCell id="13" value="引入装饰器和生成器表达式" style="text;html=1;strokeColor=none;fillColor=none;align=left;verticalAlign=middle;whiteSpace=wrap;rounded=0;" parent="1" vertex="1">
          <mxGeometry x="470" y="279" width="120" height="40" as="geometry" />
        </mxCell>
        <mxCell id="14" value="Python 2.7&lt;br&gt;(2010)" style="rounded=1;whiteSpace=wrap;html=1;fillColor=#d5e8d4;strokeColor=#82b366;" parent="1" vertex="1">
          <mxGeometry x="530" y="144" width="120" height="40" as="geometry" />
        </mxCell>
        <mxCell id="15" value="Python 2系列最后一个主要版本，2020年1月结束支持" style="text;html=1;strokeColor=none;fillColor=none;align=left;verticalAlign=middle;whiteSpace=wrap;rounded=0;" parent="1" vertex="1">
          <mxGeometry x="530" y="92" width="120" height="50" as="geometry" />
        </mxCell>
        <mxCell id="16" value="Python 3.0&lt;br&gt;(2008)" style="rounded=1;whiteSpace=wrap;html=1;fillColor=#ffe6cc;strokeColor=#d79b00;" parent="1" vertex="1">
          <mxGeometry x="610" y="239" width="120" height="40" as="geometry" />
        </mxCell>
        <mxCell id="17" value="重大语言清理，不完全向后兼容，Unicode字符串作为默认类型" style="text;html=1;strokeColor=none;fillColor=none;align=left;verticalAlign=middle;whiteSpace=wrap;rounded=0;" parent="1" vertex="1">
          <mxGeometry x="610" y="279" width="120" height="60" as="geometry" />
        </mxCell>
        <mxCell id="18" value="Python 3.4&lt;br&gt;(2014)" style="rounded=1;whiteSpace=wrap;html=1;fillColor=#ffe6cc;strokeColor=#d79b00;" parent="1" vertex="1">
          <mxGeometry x="690" y="144" width="120" height="40" as="geometry" />
        </mxCell>
        <mxCell id="19" value="引入pip作为默认包管理器，添加asyncio模块支持异步编程" style="text;html=1;strokeColor=none;fillColor=none;align=left;verticalAlign=middle;whiteSpace=wrap;rounded=0;" parent="1" vertex="1">
          <mxGeometry x="690" y="92" width="120" height="50" as="geometry" />
        </mxCell>
        <mxCell id="20" value="Python 3.5-3.6&lt;br&gt;(2015-2016)" style="rounded=1;whiteSpace=wrap;html=1;fillColor=#ffe6cc;strokeColor=#d79b00;" parent="1" vertex="1">
          <mxGeometry x="770" y="239" width="120" height="40" as="geometry" />
        </mxCell>
        <mxCell id="21" value="类型提示、async/await语法和f-strings" style="text;html=1;strokeColor=none;fillColor=none;align=left;verticalAlign=middle;whiteSpace=wrap;rounded=0;" parent="1" vertex="1">
          <mxGeometry x="770" y="279" width="120" height="40" as="geometry" />
        </mxCell>
        <mxCell id="22" value="Python 3.7-3.9&lt;br&gt;(2018-2020)" style="rounded=1;whiteSpace=wrap;html=1;fillColor=#ffe6cc;strokeColor=#d79b00;" parent="1" vertex="1">
          <mxGeometry x="850" y="144" width="120" height="40" as="geometry" />
        </mxCell>
        <mxCell id="23" value="数据类、改进的字典操作和类型注解增强" style="text;html=1;strokeColor=none;fillColor=none;align=left;verticalAlign=middle;whiteSpace=wrap;rounded=0;" parent="1" vertex="1">
          <mxGeometry x="850" y="92" width="120" height="50" as="geometry" />
        </mxCell>
        <mxCell id="24" value="Python 3.10-3.12&lt;br&gt;(2021-2023)" style="rounded=1;whiteSpace=wrap;html=1;fillColor=#ffe6cc;strokeColor=#d79b00;" parent="1" vertex="1">
          <mxGeometry x="910" y="239" width="120" height="40" as="geometry" />
        </mxCell>
        <mxCell id="25" value="结构模式匹配、改进的错误信息和大幅性能提升" style="text;html=1;strokeColor=none;fillColor=none;align=left;verticalAlign=middle;whiteSpace=wrap;rounded=0;" parent="1" vertex="1">
          <mxGeometry x="910" y="279" width="120" height="50" as="geometry" />
        </mxCell>
        <mxCell id="26" value="" style="endArrow=none;dashed=1;html=1;dashPattern=1 3;strokeWidth=2;" parent="1" edge="1">
          <mxGeometry width="50" height="50" relative="1" as="geometry">
            <mxPoint x="130" y="209" as="sourcePoint" />
            <mxPoint x="130" y="250" as="targetPoint" />
          </mxGeometry>
        </mxCell>
        <mxCell id="27" value="" style="endArrow=none;dashed=1;html=1;dashPattern=1 3;strokeWidth=2;entryX=0.5;entryY=1;entryDx=0;entryDy=0;" parent="1" edge="1">
          <mxGeometry width="50" height="50" relative="1" as="geometry">
            <mxPoint x="210" y="209" as="sourcePoint" />
            <mxPoint x="210" y="169" as="targetPoint" />
          </mxGeometry>
        </mxCell>
        <mxCell id="28" value="" style="endArrow=none;dashed=1;html=1;dashPattern=1 3;strokeWidth=2;entryX=0.5;entryY=1;entryDx=0;entryDy=0;" parent="1" edge="1">
          <mxGeometry width="50" height="50" relative="1" as="geometry">
            <mxPoint x="370" y="209" as="sourcePoint" />
            <mxPoint x="370" y="239" as="targetPoint" />
          </mxGeometry>
        </mxCell>
        <mxCell id="29" value="" style="endArrow=none;dashed=1;html=1;dashPattern=1 3;strokeWidth=2;entryX=0.5;entryY=1;entryDx=0;entryDy=0;" parent="1" edge="1">
          <mxGeometry width="50" height="50" relative="1" as="geometry">
            <mxPoint x="410" y="209" as="sourcePoint" />
            <mxPoint x="410" y="169" as="targetPoint" />
          </mxGeometry>
        </mxCell>
        <mxCell id="30" value="" style="endArrow=none;dashed=1;html=1;dashPattern=1 3;strokeWidth=2;entryX=0.5;entryY=1;entryDx=0;entryDy=0;" parent="1" edge="1">
          <mxGeometry width="50" height="50" relative="1" as="geometry">
            <mxPoint x="530" y="209" as="sourcePoint" />
            <mxPoint x="530" y="239" as="targetPoint" />
          </mxGeometry>
        </mxCell>
        <mxCell id="31" value="" style="endArrow=none;dashed=1;html=1;dashPattern=1 3;strokeWidth=2;entryX=0.5;entryY=1;entryDx=0;entryDy=0;" parent="1" edge="1">
          <mxGeometry width="50" height="50" relative="1" as="geometry">
            <mxPoint x="590" y="209" as="sourcePoint" />
            <mxPoint x="590" y="169" as="targetPoint" />
          </mxGeometry>
        </mxCell>
        <mxCell id="32" value="" style="endArrow=none;dashed=1;html=1;dashPattern=1 3;strokeWidth=2;entryX=0.5;entryY=1;entryDx=0;entryDy=0;" parent="1" edge="1">
          <mxGeometry width="50" height="50" relative="1" as="geometry">
            <mxPoint x="670" y="209" as="sourcePoint" />
            <mxPoint x="670" y="239" as="targetPoint" />
          </mxGeometry>
        </mxCell>
        <mxCell id="33" value="" style="endArrow=none;dashed=1;html=1;dashPattern=1 3;strokeWidth=2;entryX=0.5;entryY=1;entryDx=0;entryDy=0;" parent="1" edge="1">
          <mxGeometry width="50" height="50" relative="1" as="geometry">
            <mxPoint x="750" y="209" as="sourcePoint" />
            <mxPoint x="750" y="169" as="targetPoint" />
          </mxGeometry>
        </mxCell>
        <mxCell id="34" value="" style="endArrow=none;dashed=1;html=1;dashPattern=1 3;strokeWidth=2;entryX=0.5;entryY=1;entryDx=0;entryDy=0;" parent="1" edge="1">
          <mxGeometry width="50" height="50" relative="1" as="geometry">
            <mxPoint x="830" y="209" as="sourcePoint" />
            <mxPoint x="830" y="239" as="targetPoint" />
          </mxGeometry>
        </mxCell>
        <mxCell id="35" value="" style="endArrow=none;dashed=1;html=1;dashPattern=1 3;strokeWidth=2;entryX=0.5;entryY=1;entryDx=0;entryDy=0;" parent="1" edge="1">
          <mxGeometry width="50" height="50" relative="1" as="geometry">
            <mxPoint x="910" y="209" as="sourcePoint" />
            <mxPoint x="910" y="169" as="targetPoint" />
          </mxGeometry>
        </mxCell>
        <mxCell id="36" value="" style="endArrow=none;dashed=1;html=1;dashPattern=1 3;strokeWidth=2;entryX=0.5;entryY=1;entryDx=0;entryDy=0;" parent="1" edge="1">
          <mxGeometry width="50" height="50" relative="1" as="geometry">
            <mxPoint x="970" y="209" as="sourcePoint" />
            <mxPoint x="970" y="239" as="targetPoint" />
          </mxGeometry>
        </mxCell>
        <mxCell id="37" value="早期探索阶段 (1991-2000)" style="rounded=0;whiteSpace=wrap;html=1;fillColor=#dae8fc;strokeColor=#6c8ebf;fontStyle=1" parent="1" vertex="1">
          <mxGeometry x="160" y="379" width="180" height="30" as="geometry" />
        </mxCell>
        <mxCell id="38" value="稳定成长阶段 (2000-2010)" style="rounded=0;whiteSpace=wrap;html=1;fillColor=#d5e8d4;strokeColor=#82b366;fontStyle=1" parent="1" vertex="1">
          <mxGeometry x="420" y="379" width="180" height="30" as="geometry" />
        </mxCell>
        <mxCell id="39" value="现代转型阶段 (2008至今)" style="rounded=0;whiteSpace=wrap;html=1;fillColor=#ffe6cc;strokeColor=#d79b00;fontStyle=1" parent="1" vertex="1">
          <mxGeometry x="680" y="379" width="180" height="30" as="geometry" />
        </mxCell>
        <mxCell id="40" value="" style="shape=curlyBracket;whiteSpace=wrap;html=1;rounded=1;flipH=1;labelPosition=right;verticalLabelPosition=middle;align=left;verticalAlign=middle;rotation=90;" parent="1" vertex="1">
          <mxGeometry x="230" y="269" width="60" height="170" as="geometry" />
        </mxCell>
        <mxCell id="41" value="" style="shape=curlyBracket;whiteSpace=wrap;html=1;rounded=1;flipH=1;labelPosition=right;verticalLabelPosition=middle;align=left;verticalAlign=middle;rotation=90;" parent="1" vertex="1">
          <mxGeometry x="518" y="251" width="50" height="216" as="geometry" />
        </mxCell>
        <mxCell id="42" value="" style="shape=curlyBracket;whiteSpace=wrap;html=1;rounded=1;flipH=1;labelPosition=right;verticalLabelPosition=middle;align=left;verticalAlign=middle;rotation=90;" parent="1" vertex="1">
          <mxGeometry x="755" y="274" width="50" height="170" as="geometry" />
        </mxCell>
        <mxCell id="43" value="• 模块系统建立&lt;br&gt;• 垃圾回收引入&lt;br&gt;• 函数式特性加入" style="text;html=1;strokeColor=none;fillColor=none;align=left;verticalAlign=middle;whiteSpace=wrap;rounded=0;" parent="1" vertex="1">
          <mxGeometry x="165" y="419" width="170" height="50" as="geometry" />
        </mxCell>
        <mxCell id="44" value="• 列表推导式&lt;br&gt;• 生成器与迭代器&lt;br&gt;• 装饰器功能" style="text;html=1;strokeColor=none;fillColor=none;align=left;verticalAlign=middle;whiteSpace=wrap;rounded=0;" parent="1" vertex="1">
          <mxGeometry x="425" y="419" width="170" height="50" as="geometry" />
        </mxCell>
        <mxCell id="45" value="• Unicode默认&lt;br&gt;• 异步编程支持&lt;br&gt;• 类型提示系统&lt;br&gt;• 性能大幅优化" style="text;html=1;strokeColor=none;fillColor=none;align=left;verticalAlign=middle;whiteSpace=wrap;rounded=0;" parent="1" vertex="1">
          <mxGeometry x="685" y="419" width="170" height="60" as="geometry" />
        </mxCell>
        <mxCell id="46" value="1990" style="text;html=1;strokeColor=none;fillColor=none;align=center;verticalAlign=middle;whiteSpace=wrap;rounded=0;" parent="1" vertex="1">
          <mxGeometry x="80" y="209" width="60" height="30" as="geometry" />
        </mxCell>
        <mxCell id="47" value="2000" style="text;html=1;strokeColor=none;fillColor=none;align=center;verticalAlign=middle;whiteSpace=wrap;rounded=0;" parent="1" vertex="1">
          <mxGeometry x="355" y="209" width="60" height="30" as="geometry" />
        </mxCell>
        <mxCell id="48" value="2010" style="text;html=1;strokeColor=none;fillColor=none;align=center;verticalAlign=middle;whiteSpace=wrap;rounded=0;" parent="1" vertex="1">
          <mxGeometry x="590" y="209" width="60" height="30" as="geometry" />
        </mxCell>
        <mxCell id="49" value="2020" style="text;html=1;strokeColor=none;fillColor=none;align=center;verticalAlign=middle;whiteSpace=wrap;rounded=0;" parent="1" vertex="1">
          <mxGeometry x="890" y="209" width="60" height="30" as="geometry" />
        </mxCell>
      </root>
    </mxGraphModel>
  </diagram>
</mxfile>
